<svg width="1907px" height="680px" xmlns="http://www.w3.org/2000/svg" viewBox="0 0 2060.64 743.655" aria-hidden="true"><g class="guilloche-trails"><linearGradient id="273684_a" x1="96.091" x2="1999.773" y1="417.343" y2="417.343" gradientUnits="userSpaceOnUse"><stop offset="0"></stop><stop offset="1"></stop></linearGradient><path fill="url(#273684_a)" d="M1446.632 624.59c-64.069.003-129.21-17.237-197.398-52.045-79.487-40.574-154.904-100.476-227.838-158.404-71.419-56.728-145.242-115.364-220.352-153.366-39.015-19.74-75.413-32.592-111.276-39.289-39.444-7.365-77.535-7.18-116.452.564-62.403 12.42-116.247 37.599-164.606 76.977-44.246 36.027-80.51 80.761-115.58 124.023-34.09 42.053-69.327 85.523-112.078 121.44-25.858 21.726-52.246 38.864-80.67 52.394a3 3 0 01-2.58-5.418c27.959-13.308 53.928-30.176 79.39-51.57 42.312-35.547 77.365-78.79 111.265-120.609 35.274-43.515 71.737-88.494 116.464-124.913 49.137-40.011 103.837-65.594 167.224-78.21 39.68-7.896 78.515-8.084 118.724-.576 36.43 6.803 73.354 19.833 112.884 39.833 75.654 38.278 149.72 97.107 221.349 154 72.729 57.766 147.907 117.478 226.86 157.78 92.028 46.979 178.346 61.542 263.89 44.517 80.41-16.003 147.303-46.852 204.501-94.309 30.456-25.268 54.614-52.595 74.23-75.993 6.402-7.637 10.156-13.096 13.787-18.375 2.088-3.036 4.247-6.176 6.87-9.674 50.74-67.66 88.938-112.864 113.537-134.358 21.03-18.376 42.88-32.37 66.798-42.78a3 3 0 012.394 5.502c-23.343 10.16-44.685 23.832-65.245 41.796-24.283 21.22-62.196 66.114-112.683 133.44-2.55 3.4-4.58 6.35-6.728 9.474-3.71 5.396-7.547 10.974-14.133 18.83-19.787 23.604-44.172 51.181-74.995 76.755-57.985 48.11-125.749 79.374-207.161 95.576-23.38 4.653-46.817 6.988-70.392 6.989z"></path><linearGradient id="273684_b" x1="96.091" x2="1069.959" y1="403.636" y2="403.636" gradientUnits="userSpaceOnUse"><stop offset="0"></stop><stop offset="1"></stop></linearGradient><path fill="url(#273684_b)" d="M99.094 597.176a3 3 0 01-1.292-5.71c27.959-13.308 53.928-30.176 79.39-51.57 42.312-35.547 77.365-78.79 111.265-120.61 35.274-43.514 71.737-88.493 116.464-124.912 49.137-40.011 103.837-65.594 167.224-78.21 39.68-7.896 78.515-8.084 118.724-.576 36.43 6.803 73.355 19.833 112.884 39.833 75.654 38.278 149.72 97.107 221.349 154 14.238 11.31 28.942 22.989 43.705 34.537a3.001 3.001 0 01-3.697 4.726c-14.78-11.562-29.493-23.248-43.72-34.548-71.413-56.723-145.236-115.36-220.346-153.361-39.015-19.74-75.413-32.592-111.276-39.289-39.443-7.365-77.535-7.18-116.452.564-62.404 12.42-116.247 37.599-164.606 76.977-44.246 36.027-80.51 80.761-115.58 124.023-34.09 42.053-69.327 85.523-112.078 121.44-25.858 21.726-52.246 38.864-80.67 52.394a2.989 2.989 0 01-1.288.292z"></path><linearGradient id="273684_c" x1="9.318" x2="2051.32" y1="399.528" y2="399.528" gradientUnits="userSpaceOnUse"><stop offset="0"></stop><stop offset="1"></stop></linearGradient><path fill="url(#273684_c)" d="M12.316 606.967a3.002 3.002 0 01-.582-5.944c57.065-11.357 107.4-35.86 153.88-74.909 40.988-34.435 75.491-77 108.859-118.163 35.843-44.215 72.906-89.936 119.082-127.536 51.473-41.912 108.74-68.703 175.077-81.904 41.97-8.353 83.035-8.556 125.542-.618 38.131 7.122 76.633 20.685 117.706 41.467 77.293 39.106 152.096 98.522 224.437 155.98 72.02 57.204 146.478 116.343 223.83 155.829 88.282 45.066 170.775 59.098 252.192 42.893 77.4-15.403 141.682-45.008 196.52-90.506 25.59-21.233 49.374-45.658 72.708-74.671l.178-.221c8.521-10.596 15.252-18.964 24.013-30.566a5646.241 5646.241 0 0019.502-25.964c29.313-39.283 56.994-76.378 91.672-106.68 38.426-33.576 79.99-53.924 130.801-64.036a3 3 0 111.172 5.885c-49.74 9.899-90.421 29.813-128.025 62.67-34.199 29.882-61.694 66.729-90.804 105.74a5693.246 5693.246 0 01-19.529 26c-8.817 11.676-15.574 20.076-24.127 30.712l-.177.22c-23.59 29.33-47.649 54.037-73.553 75.528-55.625 46.152-120.777 76.172-199.18 91.774-82.792 16.478-166.56 2.27-256.092-43.434-77.885-39.758-152.582-99.087-224.82-156.462-72.118-57.284-146.679-116.506-223.427-155.338-40.558-20.52-78.534-33.906-116.099-40.922-41.74-7.794-82.062-7.596-123.27.604-65.352 13.006-121.764 39.394-172.458 80.673-45.695 37.207-82.56 82.683-118.21 126.662-33.545 41.382-68.233 84.173-109.661 118.978-47.273 39.716-98.487 64.64-156.569 76.2-.197.04-.394.059-.588.059z"></path><linearGradient id="273684_d" x1="70.66" x2="437.247" y1="461.269" y2="461.269" gradientUnits="userSpaceOnUse"><stop offset="0"></stop><stop offset="1"></stop></linearGradient><path fill="url(#273684_d)" d="M73.66 627.262a3.002 3.002 0 01-1.014-5.825c41.736-15.01 79.721-37.173 116.126-67.757 43.626-36.653 79.233-80.578 113.667-123.056C337.13 387.829 373 343.579 416.286 308.333a381.714 381.714 0 0116.195-12.482 3 3 0 013.532 4.85 375.445 375.445 0 00-15.938 12.285C377.271 347.84 341.6 391.845 307.101 434.4c-34.613 42.7-70.404 86.85-114.47 123.872-36.956 31.048-75.54 53.556-117.955 68.81-.335.121-.678.179-1.015.179z"></path><linearGradient id="273684_e" x1="9.318" x2="813.526" y1="399.528" y2="399.528" gradientUnits="userSpaceOnUse"><stop offset="0"></stop><stop offset="1"></stop></linearGradient><path fill="url(#273684_e)" d="M12.316 606.967a3.002 3.002 0 01-.582-5.944c57.065-11.357 107.4-35.86 153.88-74.909 40.988-34.435 75.491-77 108.859-118.163 35.843-44.215 72.906-89.936 119.082-127.536 51.473-41.912 108.74-68.703 175.077-81.904 41.97-8.353 83.035-8.555 125.542-.618 38.131 7.122 76.633 20.685 117.706 41.467a3 3 0 11-2.71 5.353c-40.557-20.52-78.533-33.906-116.098-40.922-41.74-7.795-82.062-7.596-123.27.604-65.352 13.006-121.764 39.394-172.458 80.673-45.695 37.207-82.56 82.683-118.21 126.662-33.545 41.382-68.233 84.173-109.661 118.978-47.273 39.716-98.487 64.64-156.569 76.2-.197.04-.394.059-.588.059z"></path><linearGradient id="273684_f" x1="50.441" x2="1065.533" y1="375.617" y2="375.617" gradientUnits="userSpaceOnUse"><stop offset="0"></stop><stop offset="1"></stop></linearGradient><path fill="url(#273684_f)" d="M53.442 577.152a3.001 3.001 0 01-.995-5.83C145.33 538.674 201.268 469.67 260.49 396.615c73.72-90.94 149.951-184.976 304.629-215.76 44.26-8.81 87.556-9.024 132.36-.657 39.831 7.438 79.91 21.536 122.527 43.098 78.924 39.933 154.459 99.928 227.507 157.949 5.63 4.47 11.256 8.94 16.883 13.4a3 3 0 11-3.726 4.703 19459.3 19459.3 0 01-16.89-13.405c-72.812-57.833-148.104-117.636-226.483-157.293-42.102-21.302-81.655-35.221-120.92-42.553-44.037-8.224-86.59-8.013-130.087.643-152.552 30.36-228.09 123.54-301.138 213.653-59.773 73.734-116.23 143.378-210.715 176.587-.329.117-.665.171-.995.171z"></path><linearGradient id="273684_g" x1="144.33" x2="1200.172" y1="467.824" y2="467.824" gradientUnits="userSpaceOnUse"><stop offset="0"></stop><stop offset="1"></stop></linearGradient><path fill="url(#273684_g)" d="M147.333 653.524a3 3 0 01-1.416-5.647c26.743-14.283 52.849-32.065 77.591-52.85 47.59-39.983 84.85-85.947 120.88-130.397 32.965-40.662 67.05-82.708 105.997-114.422 39.805-32.412 84.23-53.159 135.814-63.425 30.512-6.073 60.427-6.209 91.455-.416 29.621 5.531 60.236 16.424 93.594 33.302 69.101 34.962 140.24 91.465 209.037 146.106 69.295 55.04 140.946 111.951 218.335 154.615a3 3 0 011.178 4.075 2.997 2.997 0 01-4.075 1.178c-77.83-42.905-149.681-99.976-219.168-155.168-68.563-54.457-139.46-110.766-208.016-145.452-32.844-16.617-62.932-27.332-91.986-32.758-30.262-5.649-59.435-5.517-89.183.403-50.6 10.07-94.17 30.413-133.196 62.193-38.465 31.321-72.353 73.122-105.124 113.547-36.21 44.669-73.652 90.86-121.682 131.213-25.061 21.054-51.514 39.07-78.624 53.549a2.99 2.99 0 01-1.41.354z"></path><linearGradient id="273684_h" x1="96.091" x2="249.471" y1="534.373" y2="534.373" gradientUnits="userSpaceOnUse"><stop offset="0"></stop><stop offset="1"></stop></linearGradient><path fill="url(#273684_h)" d="M99.094 597.176a3 3 0 01-1.292-5.71c27.959-13.308 53.928-30.176 79.39-51.57 21.54-18.096 42.835-39.48 67.015-67.295a3.001 3.001 0 014.528 3.938c-24.39 28.057-45.897 49.648-67.683 67.951-25.858 21.726-52.246 38.864-80.67 52.394a2.989 2.989 0 01-1.288.292z"></path><linearGradient id="273684_i" x1="1015.133" x2="1782.74" y1="617.05" y2="617.05" gradientUnits="userSpaceOnUse"><stop offset="0"></stop><stop offset="1"></stop></linearGradient><path fill="url(#273684_i)" d="M1445.962 714.71c-77.996 0-156.425-20.537-237.646-62-39.795-20.313-93.73-51.4-192.026-127.952a3 3 0 013.686-4.735c97.9 76.244 151.525 107.159 191.069 127.343 110.755 56.54 216.206 73.753 322.376 52.624 92.482-18.405 172.439-55.48 244.439-113.345a3 3 0 113.759 4.678c-72.772 58.484-153.575 95.953-247.027 114.552-29.558 5.882-59.069 8.835-88.63 8.835z"></path><linearGradient id="273684_j" x1="144.33" x2="1782.94" y1="489.404" y2="489.404" gradientUnits="userSpaceOnUse"><stop offset="0"></stop><stop offset="1"></stop></linearGradient><path fill="url(#273684_j)" d="M1446.098 696.685c-75.21.001-150.987-19.878-229.598-60.008-85.897-43.845-164.21-106.047-239.943-166.2-68.565-54.459-139.461-110.767-208.018-145.454-32.844-16.617-62.932-27.333-91.986-32.758-30.262-5.649-59.435-5.517-89.183.403-50.6 10.07-94.17 30.413-133.196 62.193-38.465 31.321-72.353 73.122-105.124 113.547-36.21 44.669-73.652 90.86-121.682 131.213-25.061 21.054-51.514 39.07-78.625 53.549a3 3 0 01-2.827-5.293c26.744-14.283 52.85-32.065 77.592-52.85 47.59-39.983 84.85-85.947 120.88-130.398 32.965-40.661 67.05-82.707 105.997-114.42 39.805-32.414 84.23-53.16 135.814-63.426 30.512-6.073 60.428-6.209 91.455-.416 29.621 5.531 60.236 16.424 93.594 33.302 69.102 34.962 140.24 91.465 209.037 146.106 75.507 59.973 153.58 121.986 238.943 165.558 107.01 54.628 208.638 71.31 310.679 51.002 91.91-18.291 156.067-47.264 228.827-103.335 7.088-5.463 12.496-9.837 19.165-16.028a3 3 0 014.082 4.396c-6.837 6.349-12.358 10.815-19.585 16.384-73.56 56.69-138.416 85.98-231.317 104.468-28.324 5.636-56.615 8.465-84.98 8.465z"></path><linearGradient id="273684_k" x1="144.33" x2="1400.673" y1="488.022" y2="488.022" gradientUnits="userSpaceOnUse"><stop offset="0"></stop><stop offset="1"></stop></linearGradient><path fill="url(#273684_k)" d="M1397.676 693.92c-.113 0-.227-.005-.342-.019-59.51-6.767-118.662-25.486-180.834-57.224-85.897-43.845-164.21-106.047-239.943-166.2-68.565-54.459-139.461-110.767-208.018-145.454-32.844-16.617-62.932-27.333-91.986-32.758-30.262-5.649-59.434-5.517-89.183.403-50.6 10.07-94.169 30.414-133.196 62.193-38.465 31.321-72.353 73.122-105.124 113.547-36.21 44.67-73.652 90.86-121.682 131.213-25.061 21.054-51.514 39.07-78.624 53.549a3 3 0 11-2.827-5.293c26.743-14.283 52.849-32.065 77.591-52.85 47.59-39.983 84.85-85.947 120.88-130.398 32.965-40.661 67.05-82.707 105.997-114.42 39.805-32.414 84.23-53.16 135.814-63.426 30.513-6.073 60.428-6.208 91.455-.416 29.621 5.531 60.236 16.424 93.594 33.302 69.102 34.962 140.24 91.465 209.037 146.106 75.507 59.973 153.58 121.986 238.943 165.558 61.52 31.405 120.001 49.922 178.783 56.607a2.999 2.999 0 01-.335 5.98z"></path><linearGradient id="273684_l" x1="96.091" x2="1788.712" y1="417.343" y2="417.343" gradientUnits="userSpaceOnUse"><stop offset="0"></stop><stop offset="1"></stop></linearGradient><path fill="url(#273684_l)" d="M1446.632 624.59c-64.069.003-129.21-17.237-197.398-52.045-79.487-40.574-154.904-100.476-227.838-158.404-71.419-56.728-145.242-115.364-220.352-153.367-39.015-19.739-75.413-32.59-111.276-39.288-39.444-7.364-77.535-7.18-116.452.564-62.404 12.42-116.247 37.599-164.606 76.977-44.246 36.027-80.51 80.761-115.58 124.023-34.09 42.053-69.327 85.523-112.078 121.44-25.858 21.726-52.246 38.864-80.67 52.394a3 3 0 01-2.58-5.418c27.959-13.308 53.927-30.176 79.39-51.57 42.312-35.547 77.365-78.79 111.265-120.61 35.275-43.514 71.737-88.493 116.464-124.912 49.137-40.011 103.837-65.594 167.224-78.21 39.68-7.896 78.515-8.084 118.724-.576 36.43 6.803 73.354 19.833 112.884 39.832 75.654 38.279 149.72 97.108 221.349 154 72.729 57.767 147.907 117.48 226.86 157.781 92.028 46.979 178.346 61.542 263.89 44.517 80.41-16.003 147.303-46.852 204.501-94.309 20.796-17.254 40.843-37.245 63.091-62.914a3.001 3.001 0 014.535 3.93c-22.469 25.924-42.74 46.132-63.794 63.601-57.985 48.11-125.749 79.374-207.161 95.576-23.38 4.653-46.817 6.988-70.392 6.989z"></path><linearGradient id="273684_m" x1="9.318" x2="1587.901" y1="399.528" y2="399.528" gradientUnits="userSpaceOnUse"><stop offset="0"></stop><stop offset="1"></stop></linearGradient><path fill="url(#273684_m)" d="M12.316 606.967a3.002 3.002 0 01-.582-5.944c57.065-11.357 107.4-35.86 153.88-74.909 40.988-34.435 75.491-77 108.859-118.163 35.843-44.215 72.906-89.936 119.082-127.536 51.473-41.912 108.74-68.703 175.077-81.904 41.97-8.354 83.035-8.555 125.542-.618 38.131 7.122 76.633 20.685 117.706 41.466 77.293 39.108 152.096 98.523 224.437 155.982 72.02 57.203 146.478 116.342 223.83 155.828 88.282 45.066 170.775 59.098 252.192 42.893 25.108-4.997 49.18-11.596 71.548-19.616a3.001 3.001 0 012.025 5.648c-22.645 8.12-47.005 14.798-72.402 19.853-82.792 16.478-166.56 2.27-256.092-43.434-77.885-39.758-152.582-99.087-224.82-156.462-72.118-57.284-146.679-116.506-223.427-155.338-40.558-20.52-78.534-33.906-116.099-40.922-41.74-7.794-82.061-7.596-123.27.604-65.352 13.006-121.763 39.394-172.458 80.673-45.694 37.207-82.56 82.683-118.21 126.662-33.545 41.382-68.233 84.173-109.661 118.978-47.273 39.716-98.487 64.64-156.569 76.2-.197.04-.394.059-.588.059z"></path><linearGradient id="273684_n" x1="235.133" x2="377.702" y1="109.012" y2="109.012" gradientUnits="userSpaceOnUse"><stop offset="0"></stop><stop offset="1"></stop></linearGradient><path fill="url(#273684_n)" d="M238.134 160.218a3.001 3.001 0 01-2.036-5.205 694.94 694.94 0 0132.432-28.144c33.105-26.957 68.367-50.082 104.804-68.732a3 3 0 112.735 5.34c-36.064 18.46-70.97 41.353-103.75 68.045a688.352 688.352 0 00-32.15 27.9 2.991 2.991 0 01-2.035.796z"></path><linearGradient id="273684_o" x1="722.383" x2="1049.571" y1="81.088" y2="81.088" gradientUnits="userSpaceOnUse"><stop offset="0"></stop><stop offset="1"></stop></linearGradient><path fill="url(#273684_o)" d="M1046.568 159.99a2.99 2.99 0 01-1.763-.575C990.671 120.022 943.523 90.656 896.428 67c-57.754-29.008-115.48-48.812-171.573-58.86a3 3 0 01-2.424-3.482 2.995 2.995 0 013.482-2.424c56.662 10.15 114.938 30.136 173.209 59.405 47.394 23.806 94.808 53.334 149.215 92.925a3 3 0 01-1.769 5.426z"></path><linearGradient id="273684_p" x1="1383.33" x2="1587.607" y1="379.31" y2="379.31" gradientUnits="userSpaceOnUse"><stop offset="0"></stop><stop offset="1"></stop></linearGradient><path fill="url(#273684_p)" d="M1447.283 408.441c-19.53 0-40.012-3.888-61.96-11.717a3.001 3.001 0 012.016-5.653c31.455 11.222 59.7 14.096 86.351 8.792 44.299-8.816 79.952-24.842 109-48.991a3 3 0 013.835 4.614c-29.834 24.805-66.36 41.245-111.663 50.262-9.012 1.793-18.186 2.693-27.58 2.693z"></path><linearGradient id="273684_q" x1="1688.692" x2="1791.624" y1="171.943" y2="171.943" gradientUnits="userSpaceOnUse"><stop offset="0"></stop><stop offset="1"></stop></linearGradient><path fill="url(#273684_q)" d="M1691.69 228.282a3 3 0 01-2.383-4.82c16.967-22.233 37.746-48.497 63.224-74.73a569.23 569.23 0 0134.119-32.388 3 3 0 013.947 4.518 563.389 563.389 0 00-33.761 32.05c-25.26 26.008-45.9 52.098-62.76 74.19a2.995 2.995 0 01-2.386 1.18z"></path><linearGradient id="273684_r" x1="1054.121" x2="1188.131" y1="658.615" y2="658.615" gradientUnits="userSpaceOnUse"><stop offset="0"></stop><stop offset="1"></stop></linearGradient><path fill="url(#273684_r)" d="M1185.129 701.139c-.46 0-.925-.106-1.363-.33-40.574-20.71-82.57-46.641-128.385-79.274a2.999 2.999 0 01-.703-4.184 2.998 2.998 0 014.184-.703c45.573 32.46 87.322 58.242 127.633 78.818a3 3 0 01-1.366 5.673z"></path><linearGradient id="273684_s" x1="660.889" x2="905.879" y1="430.121" y2="430.121" gradientUnits="userSpaceOnUse"><stop offset="0"></stop><stop offset="1"></stop></linearGradient><path fill="url(#273684_s)" d="M902.877 503.144c-.65 0-1.304-.21-1.854-.643-51.085-40.241-110.177-85.497-164.99-113.23-17.725-8.968-33.885-15.651-49.403-20.43-7.911-2.437-15.747-4.387-23.291-5.795a3 3 0 011.101-5.898c7.768 1.45 15.828 3.455 23.956 5.959 15.846 4.88 32.314 11.687 50.345 20.81 55.307 27.982 114.682 73.45 165.995 113.871a3 3 0 01-1.859 5.356z"></path><linearGradient id="273684_t" x1="229.336" x2="500.744" y1="545.544" y2="545.544" gradientUnits="userSpaceOnUse"><stop offset="0"></stop><stop offset="1"></stop></linearGradient><path fill="url(#273684_t)" d="M232.339 685.719a3 3 0 01-1.72-5.46c13.222-9.228 26.411-19.356 39.202-30.1 52.86-44.411 92.315-93.081 130.47-140.148 22.007-27.148 44.755-55.21 68.112-78.81 3.83-3.87 7.635-7.576 11.313-11.017 5.478-5.126 10.906-9.883 16.133-14.14a3 3 0 013.79 4.652c-5.122 4.171-10.446 8.837-15.824 13.87a408.088 408.088 0 00-11.147 10.856c-23.148 23.388-45.801 51.334-67.708 78.36-38.34 47.294-77.979 96.19-131.28 140.97-12.926 10.86-26.259 21.097-39.627 30.427a2.983 2.983 0 01-1.714.54z"></path><linearGradient id="273684_u" x1="191.546" x2="601.91" y1="121.932" y2="121.932" gradientUnits="userSpaceOnUse"><stop offset="0"></stop><stop offset="1"></stop></linearGradient><path fill="url(#273684_u)" d="M194.546 230.68a3 3 0 01-2.241-4.993c29.734-33.445 57.567-60.41 87.59-84.859 74.799-60.907 157.752-99.787 253.601-118.862 21.706-4.32 43.644-7.272 65.206-8.774a3 3 0 01.417 5.985c-21.31 1.485-42.994 4.403-64.452 8.673-94.865 18.88-176.962 57.357-250.982 117.63-29.769 24.242-57.38 50.994-86.896 84.193a2.992 2.992 0 01-2.243 1.007z"></path><linearGradient id="273684_v" x1="765.391" x2="1846.737" y1="228.406" y2="228.406" gradientUnits="userSpaceOnUse"><stop offset="0"></stop><stop offset="1"></stop></linearGradient><path fill="url(#273684_v)" d="M1447.092 426.478c-32.91 0-67.913-9.912-107.832-30.29-61.861-31.578-129.376-85.204-194.668-137.064-79.694-63.3-162.076-128.737-256.244-176.038-40.571-20.379-81.194-36.143-120.741-46.857a3 3 0 111.568-5.79c39.935 10.817 80.936 26.726 121.867 47.285 94.72 47.58 177.35 113.211 257.258 176.683 65.085 51.695 132.362 105.131 193.689 136.438 51.525 26.302 94.494 34.776 135.215 26.672 47.311-9.415 85.58-26.687 116.993-52.803 31.622-26.29 59.683-63.9 86.822-100.27 35.171-47.137 68.39-91.66 117.475-134.545 14.05-12.276 28.7-23.68 43.54-33.894a3 3 0 013.403 4.943c-14.652 10.084-29.118 21.344-42.996 33.47-48.603 42.466-81.639 86.74-116.613 133.614-27.347 36.651-55.625 74.55-87.795 101.297-32.201 26.77-71.342 44.458-119.657 54.073a159.688 159.688 0 01-31.284 3.076z"></path><linearGradient id="273684_w" x1="1940.057" x2="2016.658" y1="418.12" y2="418.12" gradientUnits="userSpaceOnUse"><stop offset="0"></stop><stop offset="1"></stop></linearGradient><path fill="url(#273684_w)" d="M1943.055 463.082a3 3 0 01-2.402-4.794c24.607-32.983 47.85-64.137 71.031-84.39a3 3 0 113.947 4.518c-22.7 19.835-45.757 50.74-70.17 83.46a2.993 2.993 0 01-2.406 1.206z"></path><linearGradient id="273684_x" x1="1879.497" x2="1956.186" y1="406.298" y2="406.298" gradientUnits="userSpaceOnUse"><stop offset="0"></stop><stop offset="1"></stop></linearGradient><path fill="url(#273684_x)" d="M1882.497 453.04a3 3 0 01-2.269-4.962c22.349-25.846 33.26-39.764 57.167-70.256 4.07-5.192 8.507-10.851 13.43-17.118a3 3 0 014.719 3.707c-4.922 6.265-9.358 11.922-13.427 17.113-23.241 29.644-34.907 44.524-57.35 70.478a2.993 2.993 0 01-2.27 1.038z"></path><linearGradient id="273684_y" x1="1538.032" x2="1763.167" y1="693.496" y2="693.496" gradientUnits="userSpaceOnUse"><stop offset="0"></stop><stop offset="1"></stop></linearGradient><path fill="url(#273684_y)" d="M1541.03 741.242a3.002 3.002 0 01-.583-5.943c82.992-16.517 154.31-45.639 218.031-89.029a3 3 0 113.377 4.959c-64.4 43.853-136.44 73.278-220.236 89.954-.198.04-.396.06-.59.06z"></path><linearGradient id="273684_z" x1="594.325" x2="1293.131" y1="530.831" y2="530.831" gradientUnits="userSpaceOnUse"><stop offset="0"></stop><stop offset="1"></stop></linearGradient><path fill="url(#273684_z)" d="M1290.131 725.517c-.304 0-.615-.046-.92-.145-31.895-10.273-64.618-23.932-97.261-40.596-90.705-46.3-171.183-110.221-249.01-172.038-66.457-52.781-135.143-107.333-198.782-139.53-28.21-14.273-53.565-23.385-77.516-27.858-23.375-4.362-45.856-4.27-68.731.281a3.001 3.001 0 01-1.171-5.885c23.638-4.703 46.863-4.8 71.003-.294 24.518 4.579 50.4 13.87 79.124 28.402 64.183 32.473 133.113 87.217 199.772 140.16 77.63 61.659 157.868 125.391 248.04 171.418 32.358 16.518 64.782 30.053 96.371 40.229a3 3 0 01-.919 5.856z"></path><linearGradient id="273684_A" x1="144.893" x2="439.306" y1="577.065" y2="577.065" gradientUnits="userSpaceOnUse"><stop offset="0"></stop><stop offset="1"></stop></linearGradient><path fill="url(#273684_A)" d="M147.896 713.565a3 3 0 01-1.256-5.726c39.504-18.186 76.01-41.562 111.603-71.463 51.545-43.307 90.45-91.299 128.073-137.711 15.485-19.1 31.47-38.82 47.75-57.094a3 3 0 114.48 3.99c-16.186 18.172-32.127 37.835-47.543 56.851-37.828 46.663-76.916 94.882-128.9 138.558-36.01 30.25-72.957 53.907-112.954 72.32a2.995 2.995 0 01-1.253.275z"></path><linearGradient id="273684_B" x1="116.58" x2="700.477" y1="189.525" y2="189.525" gradientUnits="userSpaceOnUse"><stop offset="0"></stop><stop offset="1"></stop></linearGradient><path fill="url(#273684_B)" d="M119.578 349.003a3 3 0 01-2.29-4.937c10.349-12.244 21.025-25.414 31.349-38.15 41.025-50.61 83.444-102.938 142.624-151.129C363.727 95.78 444.111 58.108 537.01 39.62c53.498-10.646 107.622-12.422 160.865-5.279a3 3 0 01-.798 5.947c-52.589-7.058-106.05-5.3-158.896 5.217-91.914 18.292-171.443 55.56-243.13 113.935-58.7 47.8-100.92 99.882-141.75 150.25-10.346 12.764-21.042 25.958-31.43 38.25a2.994 2.994 0 01-2.293 1.063z"></path><linearGradient id="273684_C" x1="796.679" x2="1841.015" y1="251.643" y2="251.643" gradientUnits="userSpaceOnUse"><stop offset="0"></stop><stop offset="1"></stop></linearGradient><path fill="url(#273684_C)" d="M1446.974 444.5c-35.731 0-73.365-10.568-115.897-32.28-63.47-32.4-131.71-86.6-197.701-139.017-78.964-62.721-160.606-127.568-253.107-174.032-27.337-13.73-54.779-25.354-81.564-34.548a3 3 0 111.949-5.675c27.039 9.28 54.731 21.01 82.308 34.861 93.055 46.742 174.943 111.785 254.135 174.687 65.772 52.242 133.772 106.253 196.708 138.38 55.323 28.24 102.004 37.231 146.912 28.297 50.328-10.017 91.21-28.535 124.987-56.616 33.261-27.652 61.973-66.132 89.74-103.345 34.583-46.35 67.245-90.128 114.894-131.757a470.543 470.543 0 0125.868-21.046 3 3 0 113.617 4.788 464.718 464.718 0 00-25.538 20.776c-47.167 41.21-79.645 84.74-114.03 130.824-27.978 37.497-56.907 76.267-90.715 104.373-34.565 28.736-76.32 47.672-127.65 57.887a178.192 178.192 0 01-34.916 3.444z"></path><linearGradient id="273684_D" x1="277.2" x2="1974.938" y1="525.436" y2="525.436" gradientUnits="userSpaceOnUse"><stop offset="0"></stop><stop offset="1"></stop></linearGradient><path fill="url(#273684_D)" d="M1445.822 732.735c-80.772 0-161.865-21.2-245.69-63.992-89.101-45.48-168.863-108.834-245.998-170.1-67.141-53.327-136.568-108.467-201.85-141.496-29.754-15.055-56.687-24.702-82.339-29.492-25.668-4.792-50.38-4.687-75.548.322-44.7 8.896-83.13 26.821-117.49 54.801-35.58 28.972-68.278 69.307-99.9 108.314-28.989 35.758-58.937 72.702-94.719 107.376a3 3 0 11-4.176-4.309c35.523-34.424 65.356-71.225 94.208-106.813 31.84-39.277 64.736-79.857 100.797-109.22 35.138-28.613 74.426-46.943 120.11-56.034 25.929-5.16 51.384-5.27 77.82-.335 26.218 4.896 53.677 14.72 83.947 30.036 65.825 33.304 135.495 88.639 202.872 142.15 76.905 61.084 156.428 124.247 244.995 169.456 114.499 58.451 223.774 76.195 334.073 54.245 98.463-19.595 181.019-57.904 252.384-117.115 59.694-49.53 98.948-102.137 136.91-153.012 14.984-20.08 29.13-39.04 43.424-55.867a3 3 0 014.572 3.885c-14.17 16.682-28.261 35.567-43.18 55.562-38.178 51.166-77.65 104.064-137.894 154.05-72.153 59.864-155.58 98.587-255.044 118.382-30.802 6.13-61.52 9.205-92.284 9.206z"></path><linearGradient id="273684_E" x1="161.951" x2="244.298" y1="274.573" y2="274.573" gradientUnits="userSpaceOnUse"><stop offset="0"></stop><stop offset="1"></stop></linearGradient><path fill="url(#273684_E)" d="M164.95 322.14a3 3 0 01-2.329-4.89l.068-.082c9.27-11.437 18.858-23.263 28.586-34.959 17.765-21.358 32.97-38.603 47.848-54.27a3 3 0 114.35 4.132c-14.785 15.57-29.906 32.72-47.585 53.975-9.704 11.667-19.279 23.478-28.539 34.9l-.067.084a2.994 2.994 0 01-2.333 1.11z"></path><linearGradient id="273684_F" x1="356.913" x2="1546.556" y1="255.276" y2="255.276" gradientUnits="userSpaceOnUse"><stop offset="0"></stop><stop offset="1"></stop></linearGradient><path fill="url(#273684_F)" d="M1446.839 462.526c-38.543 0-78.795-11.224-123.947-34.273-65.077-33.22-134.037-87.995-200.726-140.967-78.24-62.146-159.137-126.4-249.977-172.029C759.092 58.45 650.985 41.41 541.694 63.16c-66.483 13.23-125.423 36.351-180.186 70.682a3 3 0 11-3.188-5.084c55.393-34.725 114.992-58.108 182.203-71.483 110.654-22.021 220.023-4.81 334.359 52.62 91.394 45.906 172.537 110.358 251.008 172.687 66.466 52.794 135.188 107.38 199.73 140.327 59.122 30.18 109.521 39.689 158.611 29.918 20.792-4.139 40.385-9.767 58.234-16.727a3 3 0 112.18 5.59c-18.176 7.088-38.107 12.815-59.242 17.022a196.843 196.843 0 01-38.564 3.814z"></path><linearGradient id="273684_G" x1="1644.013" x2="1891.515" y1="240.527" y2="240.527" gradientUnits="userSpaceOnUse"><stop offset="0"></stop><stop offset="1"></stop></linearGradient><path fill="url(#273684_G)" d="M1647.013 371.432a3 3 0 01-2.173-5.069c23.345-24.517 44.539-52.921 65.034-80.39 33.996-45.562 66.106-88.596 112.307-128.963 20.536-17.944 42.342-33.747 64.812-46.972a3 3 0 113.043 5.171c-22.15 13.036-43.65 28.62-63.907 46.32-45.721 39.947-77.647 82.734-111.447 128.032-20.6 27.61-41.903 56.161-65.496 80.94-.59.619-1.38.93-2.173.93z"></path><linearGradient id="273684_H" x1="1861.195" x2="1977.199" y1="431.248" y2="431.248" gradientUnits="userSpaceOnUse"><stop offset="0"></stop><stop offset="1"></stop></linearGradient><path fill="url(#273684_H)" d="M1864.194 501.324a3 3 0 01-2.232-5.003c21.564-24.04 34.409-40.197 46.83-55.822a2589.15 2589.15 0 017.842-9.835c7.177-8.941 13.444-17.166 19.504-25.12 12.053-15.818 22.463-29.478 35.898-43.452a3 3 0 014.326 4.16c-13.197 13.724-23.51 27.259-35.451 42.93-6.083 7.982-12.373 16.237-19.597 25.238-2.616 3.26-5.2 6.509-7.825 9.812-12.477 15.695-25.377 31.923-47.06 56.095a2.992 2.992 0 01-2.235.997z"></path><linearGradient id="273684_I" x1="191.624" x2="871.114" y1="473.102" y2="473.102" gradientUnits="userSpaceOnUse"><stop offset="0"></stop><stop offset="1"></stop></linearGradient><path fill="url(#273684_I)" d="M194.627 646.073a3 3 0 01-1.675-5.491c14.253-9.568 28.429-20.258 42.135-31.773 48.906-41.088 86.714-87.73 123.278-132.835 32.394-39.96 65.885-81.271 103.387-111.807 37.47-30.513 79.327-50.05 127.961-59.73 28.224-5.615 55.908-5.739 84.638-.375 27.923 5.215 56.96 15.574 88.77 31.67 31.188 15.778 66.11 37.86 106.76 67.504a3 3 0 11-3.535 4.848c-40.387-29.452-75.038-51.367-105.933-66.999-31.297-15.835-59.808-26.016-87.164-31.124-27.964-5.222-54.905-5.103-82.365.361-47.65 9.484-88.65 28.618-125.343 58.498-37.02 30.144-70.313 71.21-102.51 110.925-36.746 45.332-74.739 92.2-124.085 133.658-13.87 11.653-28.219 22.473-42.65 32.161a2.992 2.992 0 01-1.669.51z"></path><linearGradient id="273684_J" x1="115.641" x2="1914.242" y1="273.301" y2="273.301" gradientUnits="userSpaceOnUse"><stop offset="0"></stop><stop offset="1"></stop></linearGradient><path fill="url(#273684_J)" d="M1446.694 480.553c-41.34 0-84.218-11.883-131.987-36.268-66.679-34.037-136.359-89.384-203.743-142.909-77.521-61.573-157.68-125.242-246.855-170.034-109.377-54.939-213.69-71.467-318.901-50.528-86.012 17.118-160.404 51.968-227.426 106.543-55.807 45.444-96.837 96.059-136.516 145.008-20.654 25.477-40.162 49.541-60.447 70.947a3 3 0 01-4.355-4.127c20.125-21.238 39.563-45.214 60.14-70.599 39.872-49.186 81.101-100.046 137.389-145.882 67.8-55.208 143.049-90.461 230.043-107.775 106.574-21.21 212.15-4.51 322.766 51.051 89.729 45.07 170.134 108.935 247.893 170.698 67.154 53.34 136.595 108.499 202.74 142.263 62.922 32.12 117.043 42.143 170.309 31.54 56.36-11.216 102.473-32.23 140.976-64.24 36.538-30.377 66.546-70.591 95.566-109.482 33.42-44.79 64.976-87.083 109.739-126.193 23.76-20.762 49.264-38.49 75.8-52.692a3.001 3.001 0 012.832 5.29c-26.137 13.988-51.265 31.457-74.685 51.92-44.281 38.69-75.654 80.736-108.868 125.25-29.238 39.184-59.463 79.69-96.548 110.52-39.29 32.666-86.276 54.095-143.64 65.512-13.984 2.783-28.012 4.187-42.222 4.187z"></path><linearGradient id="273684_K" x1="32.608" x2="1896.515" y1="291.327" y2="291.327" gradientUnits="userSpaceOnUse"><stop offset="0"></stop><stop offset="1"></stop></linearGradient><path fill="url(#273684_K)" d="M1446.54 498.58c-44.135 0-89.625-12.54-140.018-38.263-68.283-34.856-138.678-90.771-206.755-144.845-76.805-61.006-156.226-124.089-243.738-168.044-105.656-53.07-206.177-69.086-307.308-48.96-83.063 16.53-154.885 50.172-219.572 102.848-54.36 44.264-94.795 94.145-133.9 142.384-31.434 38.775-61.124 75.398-94.397 103.51-20.805 17.579-41.765 30.694-64.078 40.097a3 3 0 11-2.33-5.53c21.745-9.163 42.201-21.97 62.536-39.15 32.84-27.747 62.357-64.156 93.607-102.703 39.298-48.478 79.932-98.604 134.773-143.261 65.464-53.308 138.144-87.353 222.19-104.08 102.49-20.397 204.276-4.212 311.172 49.483 88.065 44.234 167.733 107.512 244.778 168.708 67.845 53.89 138.002 109.616 205.75 144.2 66.722 34.058 124.557 44.595 182.007 33.162 59.373-11.816 108.102-34.077 148.97-68.052 38.185-31.746 68.841-72.83 98.488-112.562 32.83-43.999 63.832-85.549 107.154-123.4 14.732-12.874 30.216-24.576 46.017-34.782a3 3 0 113.256 5.04c-15.56 10.05-30.81 21.576-45.326 34.26-42.842 37.433-73.658 78.734-106.284 122.46-29.864 40.022-60.737 81.396-99.469 113.597-41.656 34.632-91.256 57.308-151.634 69.323-15.23 3.032-30.478 4.56-45.888 4.56z"></path><linearGradient id="273684_L" x1="106.923" x2="1956.67" y1="471.389" y2="471.389" gradientUnits="userSpaceOnUse"><stop offset="0"></stop><stop offset="1"></stop></linearGradient><path fill="url(#273684_L)" d="M1446.234 678.661c-72.429 0-145.545-19.217-221.55-58.018-84.297-43.027-161.883-104.652-236.915-164.249-69.292-55.035-140.914-111.92-211.104-147.434-34.387-17.397-66.053-28.646-96.808-34.39-32.556-6.077-63.957-5.934-96 .444-53.55 10.656-99.688 32.209-141.05 65.889-39.91 32.498-74.39 75.03-107.734 116.161-35.688 44.026-72.578 89.535-119.283 128.774-33.258 27.94-67.495 49.374-104.67 65.53a3 3 0 11-2.392-5.505c36.636-15.92 70.395-37.057 103.202-64.619 46.266-38.87 82.973-84.152 118.47-127.943 33.548-41.383 68.226-84.16 108.618-117.051 42.14-34.313 89.134-56.269 143.668-67.121 32.806-6.529 64.951-6.678 98.272-.457 31.322 5.85 63.514 17.276 98.416 34.935 70.735 35.788 142.6 92.867 212.1 148.068 74.828 59.434 152.176 120.869 235.938 163.625 103.263 52.715 201.064 68.868 298.981 49.38 89.438-17.798 164.161-52.377 228.443-105.711 54.745-45.422 92.044-95.41 128.115-143.751 23.035-30.872 44.781-60.017 68.606-83.642a3 3 0 114.225 4.26c-23.508 23.31-45.124 52.282-68.01 82.953-36.294 48.64-73.81 98.919-129.104 144.797-65.069 53.988-140.663 88.981-231.103 106.98-27.085 5.39-54.165 8.095-81.331 8.095z"></path><linearGradient id="273684_M" x1="79.182" x2="1968.667" y1="309.354" y2="309.354" gradientUnits="userSpaceOnUse"><stop offset="0"></stop><stop offset="1"></stop></linearGradient><path fill="url(#273684_M)" d="M1446.38 516.61c-46.923 0-95.027-13.198-148.042-40.26-69.88-35.672-140.994-92.157-209.766-146.782-76.09-60.438-154.771-122.932-240.623-166.055-101.938-51.202-198.668-66.703-295.714-47.39-80.11 15.943-149.364 48.375-211.72 99.15-52.91 43.084-92.75 92.23-131.28 139.759-31.985 39.455-62.193 76.719-96.766 105.929-9.432 7.97-19.068 15.2-28.638 21.49a3 3 0 11-3.296-5.014c9.37-6.159 18.812-13.244 28.062-21.06 34.14-28.845 64.175-65.895 95.973-105.12 38.725-47.769 78.765-97.16 132.156-140.637 63.134-51.408 133.244-84.243 214.338-100.382 98.404-19.587 196.4-3.912 299.579 47.913 86.405 43.4 165.332 106.092 241.661 166.719 68.541 54.441 139.415 110.736 208.762 146.136 70.519 35.996 132.067 47.049 193.705 34.784 62.39-12.416 113.734-35.924 156.964-71.864 39.825-33.11 71.129-75.062 101.401-115.632 32.247-43.218 62.695-84.023 104.576-120.617 32.867-28.719 67.82-50.13 106.857-65.456a3 3 0 012.193 5.585c-38.383 15.07-72.763 36.132-105.103 64.39-41.4 36.173-71.662 76.73-103.7 119.669-30.495 40.868-62.015 83.11-102.388 116.674-44.019 36.597-96.233 60.52-159.628 73.136-16.481 3.28-32.95 4.935-49.563 4.935z"></path><linearGradient id="273684_N" x1="173.94" x2="1983.953" y1="453.374" y2="453.374" gradientUnits="userSpaceOnUse"><stop offset="0"></stop><stop offset="1"></stop></linearGradient><path fill="url(#273684_N)" d="M1446.37 660.638c-69.644 0-140.104-18.558-213.503-56.028-82.698-42.213-159.562-103.263-233.894-162.303-69.99-55.591-142.349-113.063-214.182-149.409-35.928-18.177-69.172-29.96-101.63-36.022-34.853-6.507-68.486-6.35-102.818.483-56.501 11.244-105.207 34.006-148.902 69.585-41.356 33.676-76.432 76.944-110.352 118.786-35.15 43.363-71.491 88.194-116.878 126.326a451.894 451.894 0 01-25.511 19.933 3 3 0 11-3.52-4.86 446.006 446.006 0 0025.171-19.667c44.948-37.763 81.104-82.367 116.07-125.503 34.12-42.087 69.394-85.6 111.231-119.669 44.473-36.212 94.035-59.376 151.52-70.816 35.096-6.984 69.471-7.147 105.09-.497 33.026 6.168 66.795 18.129 103.238 36.568 72.378 36.62 144.98 94.286 215.192 150.053 74.114 58.867 150.738 119.728 232.903 161.668 99.52 50.804 193.492 66.424 287.285 47.76 86.426-17.199 158.54-50.535 220.461-101.91 53.101-44.059 89.751-93.178 125.195-140.68 27.54-36.912 53.554-71.776 83.93-98.316 8.69-7.595 17.726-14.445 26.855-20.36a3 3 0 013.264 5.035c-8.89 5.76-17.695 12.436-26.171 19.844-29.896 26.12-55.724 60.736-83.07 97.385-35.653 47.784-72.52 97.195-126.17 141.71-62.71 52.029-135.694 85.778-223.123 103.177-25.848 5.145-51.712 7.726-77.681 7.727z"></path><linearGradient id="273684_O" x1="119.15" x2="1946.806" y1="327.381" y2="327.381" gradientUnits="userSpaceOnUse"><stop offset="0"></stop><stop offset="1"></stop></linearGradient><path fill="url(#273684_O)" d="M1446.215 534.64c-49.705 0-100.421-13.855-156.062-42.258-71.481-36.49-143.313-93.543-212.777-148.719-75.391-59.881-153.323-121.78-237.506-164.065-98.22-49.334-191.156-64.321-284.122-45.82-77.159 15.355-143.844 46.579-203.867 95.455-51.469 41.908-90.713 90.32-128.666 137.138-22.462 27.708-43.673 53.875-66.48 77.539-11.235 11.656-21.914 21.731-32.649 30.8a3 3 0 01-3.872-4.583c10.577-8.936 21.11-18.873 32.2-30.381 22.629-23.479 43.761-49.548 66.135-77.148 38.15-47.06 77.594-95.717 129.542-138.019 60.801-49.508 128.343-81.135 206.486-96.687 94.326-18.772 188.527-3.612 287.986 46.345 84.737 42.562 162.915 104.657 238.52 164.707 69.26 55.013 140.85 111.877 211.798 148.094 74.318 37.936 139.588 49.504 205.404 36.407 65.407-13.017 119.364-37.771 164.958-75.677 41.46-34.47 73.412-77.288 104.311-118.696 31.66-42.432 61.554-82.499 102.002-117.84 22.693-19.828 47.219-36.45 72.898-49.406a3 3 0 012.703 5.357c-25.232 12.73-49.339 29.07-71.653 48.568-39.968 34.921-69.677 74.74-101.131 116.896-31.118 41.702-63.285 84.81-105.294 119.735-46.381 38.561-101.211 63.731-167.622 76.948-17.735 3.53-35.425 5.31-53.242 5.31z"></path><linearGradient id="273684_P" x1="70.66" x2="1965.287" y1="435.359" y2="435.359" gradientUnits="userSpaceOnUse"><stop offset="0"></stop><stop offset="1"></stop></linearGradient><path fill="url(#273684_P)" d="M1446.502 642.614c-66.86.003-134.657-17.896-205.452-54.037-81.096-41.395-157.239-101.874-230.874-160.361-70.696-56.152-143.788-114.206-217.258-151.38-37.47-18.958-72.29-31.275-106.454-37.655-37.149-6.937-73.01-6.765-109.634.523-59.453 11.832-110.728 35.803-156.755 73.282C377.271 347.84 341.6 391.845 307.101 434.4c-34.613 42.7-70.404 86.85-114.47 123.872-36.956 31.048-75.54 53.556-117.955 68.81a3 3 0 01-2.03-5.646c41.736-15.01 79.721-37.173 116.126-67.757 43.626-36.653 79.233-80.578 113.667-123.055 34.69-42.796 70.562-87.046 113.847-122.292 46.805-38.112 98.936-62.485 159.373-74.513 37.388-7.44 73.993-7.617 111.907-.538 34.73 6.486 70.077 18.982 108.06 38.2 74.016 37.45 147.35 95.697 218.27 152.026 73.416 58.313 149.32 118.602 229.883 159.725 95.774 48.892 185.922 63.985 275.587 46.139 83.42-16.602 152.923-48.693 212.481-98.11 51.452-42.69 87.45-90.935 122.262-137.591 28.134-37.704 54.706-73.316 86.513-101.107 6.507-5.686 13.209-11.003 19.92-15.802a3 3 0 013.49 4.88c-6.553 4.687-13.1 9.882-19.462 15.44-31.327 27.371-57.715 62.736-85.652 100.177-35.022 46.938-71.237 95.474-123.239 138.62-60.345 50.07-130.72 82.576-215.141 99.378-24.612 4.898-49.267 7.356-74.036 7.357z"></path><linearGradient id="273684_Q" x1="71.26" x2="1970.455" y1="345.408" y2="345.408" gradientUnits="userSpaceOnUse"><stop offset="0"></stop><stop offset="1"></stop></linearGradient><path fill="url(#273684_Q)" d="M1446.045 552.67c-52.484 0-105.808-14.512-164.076-44.255-73.086-37.309-145.635-94.934-215.797-150.662-74.655-59.298-151.852-120.615-234.382-162.069-94.502-47.465-183.645-61.94-272.528-44.252-74.208 14.769-138.325 44.783-196.016 91.76-50.02 40.73-88.67 88.407-126.048 134.514-33.078 40.806-64.322 79.349-101.495 110.755-19.714 16.656-39.368 29.868-60.084 40.39a3 3 0 01-2.716-5.35c20.296-10.309 39.572-23.27 58.928-39.624 36.74-31.04 67.81-69.37 100.706-109.95 37.57-46.344 76.418-94.265 126.92-135.388 58.469-47.61 123.443-78.027 198.634-92.992 90.243-17.958 180.652-3.314 276.392 44.775 83.084 41.732 160.527 103.245 235.422 162.733 69.93 55.544 142.241 112.98 214.793 150.016 78.115 39.875 147.1 51.96 217.1 38.028 68.422-13.617 124.996-39.618 172.953-79.489 43.106-35.839 75.704-79.523 107.227-121.77 31.072-41.643 60.416-80.97 99.422-115.053 26.383-23.051 54.138-40.8 84.85-54.258a3 3 0 112.408 5.495c-30.144 13.21-57.395 30.639-83.31 53.282-38.526 33.662-67.684 72.742-98.556 114.116-31.738 42.534-64.551 86.509-108.205 122.802-48.746 40.526-106.19 66.943-175.617 80.76-18.99 3.78-37.907 5.687-56.925 5.687z"></path><linearGradient id="273684_R" x1="123.822" x2="1938.505" y1="363.401" y2="363.401" gradientUnits="userSpaceOnUse"><stop offset="0"></stop><stop offset="1"></stop></linearGradient><path fill="url(#273684_R)" d="M1445.869 570.703c-55.257 0-111.19-15.172-172.083-46.256-74.688-38.126-147.954-96.32-218.809-152.598-148.84-118.22-302.743-240.463-492.201-202.763-71.258 14.181-132.807 42.988-188.164 88.064-48.574 39.553-86.627 86.493-123.429 131.89-38.867 47.946-75.564 93.216-122.576 127.996a3.001 3.001 0 01-3.569-4.824c46.4-34.327 82.864-79.309 121.469-126.932 37.009-45.652 75.261-92.839 124.316-132.782 56.135-45.71 118.54-74.92 190.782-89.296 192.18-38.244 347.194 84.877 497.105 203.948 70.623 56.095 143.651 114.1 217.804 151.953 81.913 41.815 154.617 54.413 228.798 39.65 159.454-31.733 226.374-121.414 291.09-208.143 30.485-40.857 59.274-79.442 96.842-112.267 12.974-11.336 26.656-21.547 40.665-30.349a3 3 0 013.192 5.08c-13.744 8.636-27.17 18.658-39.91 29.788-37.086 32.405-65.691 70.742-95.976 111.33-65.398 87.643-133.017 178.264-294.731 210.447-20.25 4.03-40.39 6.064-60.615 6.064z"></path><linearGradient id="273684_S" x1="32.608" x2="188.231" y1="417.915" y2="417.915" gradientUnits="userSpaceOnUse"><stop offset="0"></stop><stop offset="1"></stop></linearGradient><path fill="url(#273684_S)" d="M35.61 487.544a3 3 0 01-1.166-5.766c21.745-9.164 42.201-21.97 62.536-39.151 29.998-25.346 56.66-57.219 85.923-93.232a3.001 3.001 0 014.657 3.784c-29.456 36.253-56.312 68.35-86.708 94.032-20.805 17.578-41.765 30.693-64.078 40.096-.38.16-.776.237-1.164.237z"></path><linearGradient id="273684_T" x1="50.441" x2="2006.385" y1="381.368" y2="381.368" gradientUnits="userSpaceOnUse"><stop offset="0"></stop><stop offset="1"></stop></linearGradient><path fill="url(#273684_T)" d="M1446.385 588.653c-20.752 0-41.6-2.03-62.834-6.09-38.208-7.306-76.789-21.072-117.95-42.084-76.287-38.942-150.272-97.706-221.82-154.535-72.813-57.833-148.105-117.636-226.484-157.293-42.102-21.302-81.656-35.221-120.92-42.553-44.037-8.225-86.59-8.013-130.087.643-152.552 30.36-228.09 123.54-301.138 213.653-59.773 73.734-116.23 143.378-210.715 176.587a3 3 0 11-1.99-5.66c92.883-32.646 148.821-101.65 208.043-174.706 73.72-90.94 149.951-184.975 304.629-215.759 44.26-8.81 87.556-9.024 132.36-.657 39.83 7.438 79.91 21.536 122.527 43.098 78.924 39.933 154.459 99.928 227.506 157.948 71.319 56.646 145.064 115.22 220.818 153.89 40.647 20.75 78.706 34.336 116.348 41.534 42.155 8.06 82.762 7.976 124.148-.26 131.416-26.154 200.84-90.368 256.285-155.864 7.87-9.296 11.958-14.333 20.848-26.926 50.402-71.398 92.97-120.989 130.136-151.604 33.302-27.434 59.83-37.896 86.312-47.022a3 3 0 011.955 5.672c-46.362 15.977-98.91 34.086-213.501 196.415-9.028 12.788-13.18 17.903-21.17 27.342-23.76 28.066-56.858 64.186-102.292 94.633-45.583 30.545-97.07 51.231-157.401 63.238-21.306 4.24-42.41 6.36-63.613 6.36z"></path><linearGradient id="273684_U" x1="106.923" x2="504.709" y1="473.997" y2="473.997" gradientUnits="userSpaceOnUse"><stop offset="0"></stop><stop offset="1"></stop></linearGradient><path fill="url(#273684_U)" d="M109.925 651.616a3 3 0 01-1.197-5.753c36.636-15.92 70.394-37.057 103.202-64.619 46.266-38.87 82.972-84.152 118.47-127.943 33.548-41.383 68.226-84.16 108.618-117.051 19.256-15.68 39.902-28.99 61.365-39.563a3 3 0 112.65 5.383c-21.057 10.373-41.32 23.438-60.226 38.832-39.91 32.5-74.39 75.031-107.734 116.162-35.688 44.026-72.578 89.535-119.283 128.774-33.258 27.94-67.495 49.374-104.67 65.53-.39.168-.796.248-1.195.248z"></path><linearGradient id="273684_V" x1="71.26" x2="614.13" y1="333.97" y2="333.97" gradientUnits="userSpaceOnUse"><stop offset="0"></stop><stop offset="1"></stop></linearGradient><path fill="url(#273684_V)" d="M74.263 529.178a3 3 0 01-1.361-5.676c20.297-10.31 39.573-23.27 58.93-39.625 36.74-31.04 67.81-69.37 100.705-109.95 37.57-46.344 76.418-94.266 126.92-135.389 58.469-47.609 123.443-78.026 198.634-92.99 17.537-3.491 35.324-5.772 52.866-6.78a3 3 0 01.345 5.99c-17.266.992-34.775 3.238-52.04 6.674-74.208 14.769-138.325 44.783-196.016 91.76-50.02 40.73-88.67 88.407-126.048 134.514-33.078 40.806-64.322 79.349-101.495 110.755-19.714 16.656-39.368 29.868-60.084 40.39-.435.221-.899.327-1.356.327z"></path><linearGradient id="273684_W" x1="765.39" x2="1278.842" y1="193.94" y2="193.94" gradientUnits="userSpaceOnUse"><stop offset="0"></stop><stop offset="1"></stop></linearGradient><path fill="url(#273684_W)" d="M1275.839 357.547a2.985 2.985 0 01-1.68-.516c-42.66-28.878-86.844-63.974-129.574-97.913-79.687-63.295-162.069-128.731-256.237-176.032-40.571-20.379-81.194-36.143-120.741-46.857a3 3 0 111.569-5.791c39.934 10.818 80.935 26.727 121.866 47.286 94.72 47.58 177.35 113.211 257.258 176.683 42.659 33.882 86.752 68.905 129.223 97.655a3 3 0 01-1.684 5.485z"></path><linearGradient id="273684_X" x1="71.26" x2="1328.72" y1="333.662" y2="333.662" gradientUnits="userSpaceOnUse"><stop offset="0"></stop><stop offset="1"></stop></linearGradient><path fill="url(#273684_X)" d="M74.263 529.178a3 3 0 01-1.361-5.676c20.297-10.31 39.573-23.27 58.93-39.625 36.74-31.04 67.81-69.37 100.705-109.95 37.57-46.344 76.418-94.266 126.92-135.388 58.469-47.61 123.443-78.028 198.634-92.992 90.243-17.958 180.652-3.313 276.392 44.775 83.083 41.732 160.527 103.245 235.422 162.733 69.93 55.544 142.241 112.98 214.793 150.016 14.304 7.3 28.477 13.744 42.126 19.15a3 3 0 11-2.21 5.579c-13.823-5.476-28.172-11.997-42.645-19.385-73.086-37.309-145.635-94.934-215.797-150.662-74.655-59.298-151.852-120.615-234.382-162.069-94.502-47.465-183.645-61.94-272.528-44.252-74.208 14.769-138.325 44.783-196.016 91.76-50.02 40.73-88.67 88.407-126.048 134.514-33.078 40.806-64.322 79.349-101.495 110.755-19.714 16.656-39.368 29.868-60.083 40.39-.436.221-.9.327-1.357.327z"></path><linearGradient id="273684_Y" x1="1663.869" x2="1897.823" y1="635.07" y2="635.07" gradientUnits="userSpaceOnUse"><stop offset="0"></stop><stop offset="1"></stop></linearGradient><path fill="url(#273684_Y)" d="M1666.87 722.358a3 3 0 01-1.146-5.773c53.73-22.194 101.678-51.094 146.582-88.35 28.21-23.404 54.455-49.379 80.24-79.407a2.999 2.999 0 114.553 3.908c-26.008 30.288-52.49 56.494-80.96 80.116-45.377 37.648-93.828 66.851-148.124 89.278a2.984 2.984 0 01-1.144.228z"></path></g><g class="guilloche-balls"><circle cx="436.306" cy="443.566" r="3.383" transform="rotate(-43.299 436.306 443.566)"></circle><circle cx="497.744" cy="408.37" r="3.383" transform="rotate(-43.299 497.744 408.37)"></circle><circle cx="502.667" cy="299.192" r="3.383" transform="rotate(-43.299 502.667 299.192)"></circle><circle cx="246.357" cy="474.47" r="3.383" transform="rotate(-43.299 246.357 474.47)"></circle><circle cx="185.231" cy="351.287" r="3.383" transform="rotate(-43.299 185.23 351.286)"></circle><circle cx="241.298" cy="230.006" r="3.383" transform="rotate(-43.299 241.298 230.006)"></circle><circle cx="697.473" cy="37.3" r="3.383" transform="rotate(-43.299 697.473 37.3)"></circle><circle cx="868.061" cy="405.391" r="3.383" transform="rotate(-43.299 868.061 405.391)"></circle><circle cx="1185.13" cy="698.137" r="3.383" transform="rotate(-43.299 1185.13 698.138)"></circle><circle cx="1290.131" cy="722.516" r="3.383" transform="rotate(-43.299 1290.13 722.517)"></circle><circle cx="1066.958" cy="446.321" r="3.383" transform="rotate(-43.299 1066.958 446.322)"></circle><circle cx="1276.805" cy="355.062" r="3.383" transform="rotate(-43.299 1276.805 355.062)"></circle><circle cx="1325.722" cy="525.01" r="3.383" transform="rotate(-43.299 1325.721 525.01)"></circle><circle cx="1197.173" cy="623.016" r="3.383" transform="rotate(-43.299 1197.173 623.017)"></circle><circle cx="1543.533" cy="438.783" r="3.383" transform="rotate(-43.299 1543.533 438.784)"></circle><circle cx="1779.941" cy="565.174" r="3.383" transform="rotate(-43.299 1779.94 565.175)"></circle><circle cx="1779.774" cy="589.153" r="3.383" transform="rotate(-43.299 1779.774 589.154)"></circle><circle cx="1760.167" cy="648.75" r="3.383" transform="rotate(-43.299 1760.167 648.751)"></circle><circle cx="1397.673" cy="690.921" r="3.383" transform="rotate(-43.299 1397.673 690.92)"></circle><circle cx="1584.903" cy="577.288" r="3.383" transform="rotate(-43.299 1584.903 577.289)"></circle><circle cx="1785.396" cy="456.521" r="3.383" transform="rotate(-43.299 1785.396 456.52)"></circle><circle cx="1916.953" cy="269.63" r="3.383" transform="rotate(-43.299 1916.953 269.629)"></circle><circle cx="1971.957" cy="393.7" r="3.383" transform="rotate(-43.299 1971.958 393.7)"></circle><circle cx="1584.607" cy="353.179" r="3.383" transform="rotate(-43.299 1584.608 353.18)"></circle><circle cx="1788.624" cy="118.603" r="3.383" transform="rotate(-43.299 1788.623 118.602)"></circle><circle cx="1756.125" cy="259.257" r="3.383" transform="rotate(-43.299 1756.125 259.258)"></circle><circle cx="1062.528" cy="396.998" r="3.383" transform="rotate(-43.299 1062.529 396.999)"></circle><circle cx="902.879" cy="500.144" r="3.383" transform="rotate(-43.299 902.88 500.144)"></circle><circle cx="809.823" cy="241.513" r="3.383" transform="rotate(-43.299 809.823 241.513)"></circle><circle cx="611.127" cy="141.753" r="3.383" transform="rotate(-43.299 611.128 141.753)"></circle><circle cx="374.701" cy="60.807" r="3.383" transform="rotate(-43.299 374.701 60.807)"></circle><circle cx="598.911" cy="16.186" r="3.383" transform="rotate(-43.299 598.91 16.186)"></circle><circle cx="434.257" cy="298.278" r="3.383" transform="rotate(-43.299 434.257 298.278)"></circle><circle cx="1046.571" cy="156.99" r="3.383" transform="rotate(-43.299 1046.571 156.99)"></circle><circle cx="1894.823" cy="550.782" r="3.383" transform="rotate(-43.299 1894.824 550.783)"></circle></g></svg>
